<?xml version="1.0" standalone="no"?>
<!DOCTYPE svg PUBLIC "-//W3C//DTD SVG 20010904//EN"
 "http://www.w3.org/TR/2001/REC-SVG-20010904/DTD/svg10.dtd">
<svg version="1.0" xmlns="http://www.w3.org/2000/svg"
 width="1900.000000pt" height="1900.000000pt" viewBox="0 0 1900.000000 1900.000000"
 preserveAspectRatio="xMidYMid meet">
<metadata>
Created by potrace 1.11, written by Peter Selinger 2001-2013
</metadata>
<g transform="translate(0.000000,1900.000000) scale(0.100000,-0.100000)"
fill="#000000" stroke="none">
<path d="M9410 18895 c0 -7 -15 -9 -36 -7 -28 3 -35 1 -29 -8 6 -10 4 -11 -6
-4 -20 13 -93 13 -101 0 -5 -8 -8 -8 -8 1 0 12 -24 12 -36 0 -4 -3 -16 -1 -28
5 -11 6 -21 11 -21 10 0 0 -12 -5 -27 -11 -18 -7 -29 -7 -33 0 -4 5 -11 7 -16
4 -5 -4 -57 -8 -116 -11 -172 -8 -177 -9 -190 -17 -6 -4 -15 -3 -18 3 -5 8
-11 7 -21 -1 -11 -9 -14 -9 -14 0 0 7 -5 9 -12 4 -13 -7 -42 -10 -145 -14 -29
-1 -51 -4 -49 -8 2 -3 -22 -6 -55 -6 -32 0 -59 -2 -59 -5 0 -4 -17 -6 -37 -5
-21 0 -42 -2 -48 -4 -5 -3 -23 -6 -40 -8 -35 -2 -90 -9 -155 -18 -25 -4 -58
-8 -75 -10 -16 -2 -43 -6 -60 -10 -105 -21 -145 -28 -177 -28 -15 1 -25 -3
-22 -8 3 -5 -14 -10 -38 -11 -40 -1 -55 -3 -68 -8 -17 -6 -48 -11 -67 -11 -13
0 -23 -4 -23 -10 0 -5 -4 -8 -9 -5 -4 3 -33 -1 -62 -8 -30 -8 -57 -12 -61 -10
-5 3 -8 1 -8 -5 0 -5 -10 -8 -22 -6 -12 3 -27 0 -33 -5 -6 -5 -26 -10 -43 -12
-18 -1 -32 -5 -32 -8 0 -3 -12 -6 -28 -7 -28 -3 -65 -10 -69 -13 -4 -3 -12 -5
-61 -14 -26 -5 -40 -12 -35 -18 3 -6 2 -8 -3 -5 -9 5 -76 -6 -109 -17 -5 -2
-13 -4 -17 -5 -4 -1 -22 -7 -40 -12 -18 -6 -42 -12 -53 -15 -11 -3 -24 -6 -30
-8 -5 -2 -23 -6 -40 -10 -16 -4 -37 -10 -45 -13 -8 -3 -21 -7 -28 -9 -8 -1
-21 -6 -30 -10 -24 -10 -29 -11 -63 -13 -16 0 -28 -5 -25 -10 3 -5 -12 -11
-34 -15 -22 -3 -40 -12 -40 -19 0 -8 -4 -7 -10 3 -7 11 -10 11 -10 2 0 -7 -4
-11 -9 -7 -5 3 -12 1 -16 -5 -3 -6 -17 -8 -31 -6 -13 3 -22 1 -19 -4 5 -8 -10
-15 -55 -25 -37 -9 -59 -18 -56 -24 2 -3 -9 -7 -26 -7 -17 -1 -33 -5 -37 -10
-3 -5 -17 -10 -31 -12 -13 -1 -27 -7 -31 -13 -3 -6 -10 -10 -15 -9 -8 1 -21
-2 -56 -15 -19 -6 -23 -7 -30 -6 -5 0 -8 -4 -8 -9 0 -5 -3 -9 -7 -9 -18 3 -73
-14 -73 -23 0 -5 -4 -7 -9 -3 -5 3 -16 -1 -24 -9 -8 -8 -17 -12 -21 -9 -3 3
-12 0 -20 -6 -8 -7 -19 -10 -25 -7 -5 3 -11 -1 -15 -9 -3 -8 -12 -12 -21 -9
-8 4 -15 1 -15 -6 0 -7 -7 -10 -15 -6 -8 3 -15 1 -15 -4 0 -4 -13 -11 -30 -15
-16 -4 -30 -10 -30 -14 0 -4 -6 -8 -12 -8 -7 0 -39 -12 -70 -26 -32 -15 -69
-29 -83 -33 -14 -3 -25 -10 -25 -15 0 -5 -3 -8 -7 -7 -5 1 -22 -5 -39 -15 -17
-9 -34 -13 -38 -10 -3 4 -6 1 -6 -6 0 -8 -7 -11 -15 -7 -8 3 -15 1 -15 -4 0
-9 -39 -26 -52 -22 -5 1 -8 -2 -8 -7 0 -5 -16 -15 -35 -21 -19 -6 -35 -16 -35
-21 0 -6 -5 -7 -10 -4 -6 4 -18 1 -26 -6 -9 -7 -23 -14 -32 -15 -8 -2 -18 -8
-22 -14 -4 -7 -11 -11 -16 -11 -5 1 -16 -5 -24 -12 -8 -7 -19 -14 -25 -15 -26
-6 -50 -15 -55 -21 -3 -3 -46 -26 -97 -51 -50 -24 -89 -49 -86 -54 4 -5 1 -6
-5 -2 -6 3 -13 2 -17 -4 -4 -6 -10 -8 -15 -5 -5 3 -12 1 -15 -5 -4 -6 -34 -24
-68 -40 -34 -16 -58 -30 -53 -30 5 0 -18 -14 -50 -31 -32 -18 -62 -37 -66 -43
-4 -6 -8 -7 -8 -3 0 5 -13 -1 -30 -13 -16 -12 -30 -18 -30 -13 0 4 -5 0 -11
-9 -5 -10 -15 -18 -20 -18 -6 0 -31 -15 -57 -32 -26 -18 -49 -33 -52 -33 -18
-3 -79 -49 -74 -56 3 -5 -2 -6 -10 -3 -9 4 -18 -1 -22 -10 -3 -9 -10 -14 -14
-11 -5 3 -15 -2 -23 -10 -9 -8 -20 -15 -26 -15 -6 0 -11 -4 -11 -9 0 -5 -14
-14 -30 -21 -16 -7 -30 -17 -30 -23 0 -6 -3 -8 -6 -4 -3 3 -16 -5 -29 -18 -12
-14 -24 -23 -27 -20 -2 3 -15 -6 -28 -20 -13 -14 -28 -25 -32 -25 -8 0 -72
-44 -88 -60 -3 -3 -32 -23 -65 -45 -33 -22 -62 -43 -63 -48 -2 -4 -8 -5 -13
-1 -5 3 -9 0 -9 -6 0 -6 -11 -15 -25 -22 -13 -6 -22 -15 -19 -19 3 -5 -1 -9
-9 -9 -8 0 -25 -10 -39 -22 -14 -13 -40 -34 -58 -48 -18 -14 -41 -33 -51 -42
-11 -10 -19 -15 -19 -12 0 3 -6 -1 -13 -8 -8 -7 -26 -22 -42 -33 -15 -11 -41
-32 -57 -47 -16 -16 -32 -28 -35 -28 -3 0 -13 -7 -22 -15 -9 -8 -27 -24 -41
-37 -14 -13 -28 -22 -32 -21 -5 2 -8 -4 -8 -12 0 -8 -4 -15 -9 -15 -9 0 -53
-35 -97 -77 -13 -13 -28 -23 -34 -23 -5 0 -10 -7 -10 -15 0 -8 -5 -15 -10 -15
-6 0 -27 -16 -47 -35 -20 -19 -43 -35 -51 -35 -9 0 -13 -3 -10 -6 7 -7 -39
-54 -53 -54 -6 0 -8 -3 -6 -7 2 -5 -20 -28 -48 -53 -29 -25 -58 -55 -65 -67
-7 -12 -16 -21 -19 -20 -4 1 -24 -15 -45 -35 -22 -21 -43 -38 -48 -38 -5 0 -7
-3 -5 -7 5 -10 -60 -72 -68 -65 -3 3 -5 1 -5 -5 0 -6 -40 -53 -90 -103 -49
-51 -87 -97 -83 -103 3 -5 2 -7 -4 -4 -11 7 -59 -43 -55 -56 1 -5 -2 -6 -8 -2
-5 3 -13 -1 -16 -9 -3 -9 -13 -16 -21 -16 -8 0 -12 -4 -9 -9 3 -4 -18 -32 -46
-62 -29 -29 -46 -49 -39 -44 10 5 12 4 7 -3 -4 -7 -14 -12 -22 -12 -8 0 -12
-4 -9 -10 3 -5 2 -10 -4 -10 -5 0 -13 -9 -16 -20 -4 -11 -11 -18 -16 -15 -5 4
-9 2 -9 -3 0 -5 -12 -22 -28 -39 -38 -42 -76 -88 -82 -99 -10 -21 -46 -51 -54
-46 -5 3 -6 0 -2 -6 3 -6 -1 -17 -9 -25 -8 -9 -15 -21 -15 -27 0 -6 -4 -8 -10
-5 -6 3 -10 -1 -10 -10 0 -8 -7 -18 -15 -21 -8 -4 -15 -12 -15 -20 0 -8 -9
-19 -20 -26 -11 -7 -20 -16 -20 -20 0 -7 -6 -16 -58 -76 -12 -15 -25 -35 -28
-45 -3 -9 -10 -15 -15 -12 -5 4 -9 -1 -9 -10 0 -8 -7 -18 -15 -21 -8 -4 -12
-10 -9 -15 3 -5 0 -9 -5 -9 -6 0 -11 -7 -11 -16 0 -8 -4 -12 -10 -9 -5 3 -10
-1 -10 -9 0 -9 -5 -16 -12 -16 -6 0 -8 -3 -5 -7 4 -3 -3 -16 -16 -28 -12 -11
-23 -27 -25 -35 -2 -8 -12 -22 -23 -31 -11 -10 -20 -20 -20 -23 3 -20 0 -26
-9 -21 -5 3 -10 1 -10 -4 0 -19 -4 -26 -35 -56 -16 -16 -28 -31 -27 -33 2 -2
-3 -13 -12 -25 -9 -12 -35 -49 -56 -82 -22 -33 -45 -67 -52 -76 -6 -10 -11
-21 -11 -25 -1 -5 -12 -19 -24 -32 -13 -13 -21 -27 -18 -32 3 -4 -2 -10 -10
-14 -8 -3 -15 -15 -15 -26 0 -12 -4 -18 -10 -15 -5 3 -10 0 -10 -9 0 -8 -4
-16 -9 -18 -5 -2 -11 -10 -13 -18 -2 -8 -5 -17 -8 -20 -16 -15 -59 -90 -53
-90 5 0 0 -5 -10 -11 -9 -6 -15 -14 -12 -20 4 -5 1 -9 -5 -9 -6 0 -8 -4 -5
-10 3 -5 3 -10 -2 -10 -4 0 -21 -25 -38 -55 -16 -30 -34 -55 -39 -55 -5 0 -6
-3 -3 -7 4 -3 2 -12 -4 -20 -6 -7 -9 -13 -5 -13 3 0 -3 -9 -14 -20 -12 -12
-18 -25 -15 -30 4 -6 2 -10 -3 -10 -5 0 -15 -15 -23 -32 -7 -18 -16 -35 -19
-38 -3 -3 -14 -22 -23 -42 -10 -20 -22 -40 -27 -43 -6 -3 -10 -15 -10 -26 0
-13 -4 -18 -12 -13 -6 4 -8 3 -5 -3 3 -5 -3 -24 -14 -42 -11 -19 -14 -30 -7
-26 7 4 5 0 -6 -9 -11 -9 -15 -20 -10 -28 4 -7 3 -10 -1 -5 -8 7 -51 -70 -47
-85 1 -5 -2 -8 -7 -8 -10 0 -24 -38 -21 -59 1 -7 -3 -10 -9 -6 -6 3 -11 -1
-11 -10 0 -17 -20 -56 -35 -67 -5 -4 -7 -8 -2 -8 4 0 1 -10 -8 -23 -8 -13 -12
-27 -8 -30 3 -4 1 -7 -5 -7 -7 0 -11 -3 -11 -7 4 -19 -24 -72 -34 -66 -6 3 -7
1 -3 -6 4 -6 2 -18 -4 -26 -6 -8 -9 -18 -6 -24 3 -5 -1 -12 -10 -15 -9 -4 -14
-9 -10 -13 3 -3 -2 -15 -11 -26 -10 -11 -12 -17 -4 -12 8 4 6 -3 -5 -21 -10
-15 -19 -32 -19 -38 -1 -6 -9 -29 -19 -51 -48 -108 -60 -137 -58 -147 1 -5 -2
-8 -7 -8 -5 0 -12 -7 -15 -16 -3 -8 -2 -13 3 -10 5 4 4 -5 -2 -19 -7 -14 -15
-25 -19 -25 -4 0 -5 -7 -2 -15 4 -8 1 -15 -4 -15 -6 0 -9 -9 -7 -20 2 -11 0
-20 -5 -20 -10 0 -30 -56 -23 -64 4 -3 1 -6 -6 -6 -7 0 -9 -5 -5 -11 3 -6 1
-15 -5 -19 -7 -4 -13 -17 -14 -28 -1 -12 -5 -22 -10 -22 -4 0 -5 -4 -2 -10 3
-5 1 -10 -5 -10 -6 0 -9 -4 -6 -9 4 -5 -3 -30 -14 -55 -10 -25 -17 -46 -13
-46 3 0 0 -6 -6 -13 -6 -8 -8 -17 -4 -20 3 -4 1 -7 -4 -7 -6 0 -10 -8 -9 -17
2 -10 -3 -23 -10 -30 -7 -7 -11 -22 -9 -33 2 -11 -1 -20 -7 -20 -5 0 -8 -7 -4
-15 3 -8 1 -15 -4 -15 -6 0 -10 -11 -10 -25 0 -14 -4 -25 -8 -25 -4 0 -9 -8
-10 -17 -3 -27 -8 -45 -20 -76 -7 -16 -12 -37 -12 -48 0 -10 -4 -19 -9 -19 -6
0 -8 -9 -6 -20 2 -11 0 -22 -5 -25 -5 -3 -7 -12 -3 -20 3 -8 1 -15 -4 -15 -8
0 -12 -15 -15 -57 -1 -7 -5 -13 -10 -13 -5 0 -6 -5 -3 -10 4 -6 3 -16 -2 -23
-5 -7 -9 -21 -9 -32 1 -11 -3 -23 -7 -26 -8 -6 -19 -50 -21 -81 0 -10 -4 -18
-8 -18 -4 0 -7 -3 -6 -7 3 -13 -25 -127 -33 -137 -4 -5 -3 -18 2 -29 8 -14 8
-18 0 -13 -6 4 -11 0 -12 -11 0 -10 -2 -25 -4 -33 -2 -8 -6 -26 -9 -39 -3 -14
-11 -28 -18 -33 -9 -5 -9 -8 -1 -8 6 0 10 -8 8 -17 -2 -10 -4 -18 -5 -18 -2 0
-10 -34 -15 -60 -2 -11 -4 -20 -5 -20 -2 0 -10 -36 -14 -65 -2 -14 -6 -36 -10
-50 -3 -14 -9 -41 -11 -60 -3 -19 -8 -46 -11 -60 -5 -26 -11 -71 -13 -103 0
-10 -4 -16 -8 -14 -5 3 -8 -15 -7 -39 0 -25 -3 -47 -7 -50 -4 -2 -6 -15 -4
-29 1 -14 -1 -25 -4 -25 -4 0 -7 -8 -8 -17 -1 -10 -4 -47 -8 -83 -4 -36 -8
-74 -9 -85 -1 -11 -5 -26 -10 -34 -5 -8 -3 -16 5 -22 9 -5 10 -9 2 -9 -6 0
-10 -11 -8 -25 1 -14 -1 -25 -4 -25 -3 0 -7 -17 -8 -38 -1 -20 -4 -62 -8 -92
-3 -30 -7 -68 -8 -85 -1 -16 -6 -33 -12 -37 -6 -5 -6 -8 1 -8 6 0 11 -7 11
-15 0 -8 -4 -12 -9 -9 -11 7 -10 -3 3 -28 7 -13 7 -18 1 -14 -7 4 -10 -8 -8
-34 2 -22 0 -40 -3 -40 -4 0 -6 -22 -5 -50 2 -28 -2 -50 -7 -50 -6 0 -7 -5 -4
-11 11 -17 12 -70 2 -76 -5 -3 -3 -9 4 -14 8 -5 9 -9 4 -9 -11 0 -14 -41 -19
-280 -1 -75 -5 -140 -8 -146 -4 -5 -3 -16 2 -24 5 -8 4 -22 -2 -33 -8 -15 -7
-18 4 -11 11 6 11 5 -1 -9 -7 -9 -10 -17 -5 -17 12 0 11 -93 -1 -102 -6 -5 -5
-8 3 -8 6 0 12 -7 12 -15 0 -8 -6 -15 -12 -15 -9 0 -10 -3 -2 -8 6 -4 11 -48
12 -107 0 -55 1 -102 2 -105 5 -15 1 -90 -4 -98 -3 -6 -1 -14 5 -17 5 -4 8
-13 5 -20 -2 -7 -2 -16 2 -20 10 -10 8 -49 -3 -57 -7 -5 -7 -11 0 -15 6 -5 11
-17 10 -28 0 -11 3 -37 6 -57 4 -21 2 -41 -4 -47 -8 -8 -8 -11 -1 -11 6 0 10
-22 10 -50 -1 -27 2 -50 6 -50 11 0 6 -23 -7 -32 -6 -5 -6 -8 2 -8 6 0 10 -11
8 -25 -1 -14 1 -27 5 -30 3 -2 5 -20 4 -40 -2 -23 1 -33 7 -29 7 4 7 -1 0 -15
-7 -13 -8 -21 -2 -21 5 0 8 -9 6 -20 -2 -11 -1 -21 3 -24 4 -2 7 -25 6 -50 0
-25 2 -46 5 -46 3 0 7 -25 9 -57 1 -31 8 -63 15 -71 8 -11 9 -14 0 -9 -8 5
-11 0 -10 -13 1 -11 4 -20 7 -20 3 0 6 -10 6 -22 1 -34 11 -85 20 -99 5 -8 3
-10 -5 -4 -10 6 -11 3 -2 -14 7 -11 12 -37 13 -56 1 -19 4 -35 8 -35 3 0 6
-10 7 -22 1 -35 16 -139 23 -158 1 -3 1 -13 0 -24 -1 -13 2 -16 12 -10 10 6
10 4 -1 -9 -8 -10 -9 -17 -3 -17 6 0 11 -8 11 -17 -1 -25 7 -65 16 -86 4 -9 5
-26 2 -37 -3 -10 1 -21 8 -24 8 -3 12 -13 10 -23 -1 -10 4 -33 11 -51 7 -18 9
-30 4 -27 -9 5 6 -46 22 -79 7 -14 6 -16 -4 -10 -10 6 -10 4 1 -9 7 -9 11 -17
7 -17 -3 0 -2 -10 3 -23 5 -13 12 -41 15 -63 4 -21 11 -41 16 -42 6 -2 7 -8 4
-13 -3 -6 0 -16 6 -24 10 -12 10 -15 0 -15 -10 0 -9 -5 2 -17 9 -10 13 -23 11
-30 -2 -6 0 -14 6 -17 6 -4 8 -13 4 -21 -3 -8 -1 -15 4 -15 5 0 10 -6 11 -12
0 -7 4 -26 7 -43 3 -16 7 -38 9 -48 1 -10 9 -23 17 -28 10 -6 10 -9 1 -9 -8 0
-9 -5 -3 -18 13 -26 31 -86 31 -106 0 -9 4 -15 9 -12 5 4 8 -2 6 -11 -1 -10 2
-23 7 -29 5 -7 8 -16 6 -20 -1 -5 3 -18 9 -29 6 -11 9 -28 8 -37 -2 -10 1 -18
7 -18 6 0 7 -7 4 -15 -3 -9 1 -18 10 -22 13 -5 13 -7 2 -14 -10 -7 -10 -9 0
-9 6 0 12 -10 12 -23 0 -13 3 -27 7 -31 10 -10 34 -78 37 -103 1 -12 6 -26 10
-30 5 -5 6 -2 1 6 -5 8 -4 12 2 8 5 -3 8 -20 7 -36 -1 -17 2 -28 7 -25 5 3 9
-3 9 -13 0 -11 4 -23 10 -29 5 -5 11 -22 12 -37 1 -15 6 -27 10 -27 4 0 8 -7
8 -15 0 -8 4 -15 8 -15 4 0 9 -8 10 -17 4 -46 9 -65 18 -71 9 -7 16 -27 17
-49 0 -7 4 -13 9 -13 5 0 6 -4 3 -10 -3 -5 -2 -10 4 -10 5 0 13 -15 17 -32 3
-18 13 -42 20 -54 8 -11 11 -24 7 -27 -3 -4 0 -7 7 -7 7 0 10 -3 7 -7 -4 -3 0
-15 10 -25 9 -10 14 -21 10 -24 -3 -3 3 -21 14 -40 10 -19 19 -41 19 -49 0 -8
5 -15 11 -15 5 0 8 -4 4 -9 -3 -5 1 -15 8 -23 13 -13 32 -66 29 -80 -1 -5 3
-8 8 -8 13 0 36 -55 39 -93 1 -5 7 -5 14 -1 6 4 9 4 5 -1 -4 -4 0 -22 9 -39 9
-17 18 -37 19 -45 2 -8 8 -17 15 -21 6 -4 9 -12 5 -18 -3 -6 -3 -12 2 -14 4
-1 30 -47 57 -101 26 -54 52 -100 57 -103 5 -3 6 -10 3 -15 -4 -5 -1 -9 5 -9
6 0 9 -4 5 -9 -3 -5 -1 -12 5 -16 6 -4 7 -11 4 -17 -4 -7 -2 -8 4 -4 11 6 16
-6 13 -27 0 -4 4 -7 9 -7 6 0 10 -7 10 -15 0 -8 5 -15 10 -15 6 0 10 -8 10
-18 0 -10 9 -28 20 -40 12 -12 18 -22 15 -22 -3 0 6 -18 20 -40 14 -22 23 -40
20 -40 -3 0 4 -9 15 -20 12 -12 18 -25 15 -30 -4 -6 -1 -10 4 -10 6 0 11 -7
11 -15 0 -8 4 -15 9 -15 5 0 13 -10 17 -22 3 -12 13 -28 21 -36 8 -8 12 -20
10 -27 -3 -6 4 -17 14 -24 11 -6 17 -16 14 -21 -3 -6 -1 -10 5 -10 6 0 8 -5 5
-10 -3 -6 1 -10 10 -10 9 0 14 -4 11 -9 -4 -5 -1 -11 4 -13 10 -3 16 -21 19
-51 1 -5 5 -6 10 -3 5 3 14 -8 20 -24 5 -17 15 -30 20 -30 6 0 10 -3 9 -7 -2
-12 24 -63 33 -63 4 0 10 -8 14 -19 3 -10 14 -29 25 -41 11 -12 17 -27 14 -31
-3 -5 2 -9 10 -9 9 0 15 -4 13 -9 -3 -11 20 -45 51 -77 13 -13 18 -24 12 -24
-6 0 0 -11 14 -25 13 -13 33 -38 42 -55 10 -16 22 -30 26 -30 4 0 8 -7 8 -15
0 -8 5 -15 10 -15 6 0 10 -7 10 -15 0 -8 5 -15 10 -15 6 0 10 -6 10 -14 0 -8
7 -17 16 -20 8 -3 12 -10 9 -16 -3 -5 -2 -10 3 -10 5 0 15 -11 22 -25 7 -13
18 -22 23 -18 6 3 7 1 4 -4 -6 -9 41 -79 62 -93 5 -3 11 -15 15 -28 4 -12 12
-20 17 -16 6 3 13 -3 16 -15 3 -12 10 -21 16 -21 6 0 7 -3 4 -7 -4 -3 2 -12
13 -20 11 -8 20 -21 20 -29 0 -8 4 -13 9 -9 5 3 12 -3 16 -14 3 -10 22 -36 43
-57 20 -21 30 -34 22 -30 -11 7 -10 4 2 -10 67 -73 98 -107 130 -143 20 -23
34 -41 31 -41 -3 0 7 -13 23 -29 55 -54 92 -100 86 -105 -3 -3 3 -6 13 -6 10
0 16 -3 12 -6 -3 -3 8 -20 24 -36 16 -17 29 -35 29 -40 0 -5 4 -7 8 -4 4 2 17
-8 29 -23 12 -15 69 -76 127 -136 58 -60 108 -115 110 -122 3 -7 13 -13 21
-13 9 0 13 -5 10 -10 -3 -6 0 -13 8 -16 8 -3 59 -49 115 -103 55 -55 103 -97
105 -94 3 2 8 -5 12 -16 3 -12 13 -21 21 -21 8 0 12 -5 9 -10 -3 -6 -1 -10 5
-10 13 0 45 -30 33 -31 -4 0 2 -4 15 -10 14 -5 20 -13 16 -20 -4 -7 -3 -9 3
-6 9 6 74 -47 141 -115 12 -12 22 -19 22 -15 0 5 7 2 15 -7 8 -8 15 -20 15
-26 0 -6 4 -9 9 -5 6 3 13 -1 18 -8 4 -7 28 -29 53 -48 24 -18 59 -48 77 -66
18 -18 33 -29 33 -25 0 4 7 -2 15 -12 8 -11 15 -16 15 -11 0 5 7 -1 16 -13 8
-12 21 -22 27 -22 7 0 19 -9 27 -20 8 -11 20 -20 26 -20 7 0 22 -12 33 -26 12
-15 25 -23 32 -18 8 4 9 3 5 -4 -4 -7 -1 -12 9 -12 9 0 14 -4 11 -8 -3 -4 13
-19 35 -32 21 -14 39 -28 39 -32 0 -5 5 -8 11 -8 7 0 19 -8 28 -18 9 -10 30
-25 48 -32 17 -8 29 -18 27 -22 -3 -4 0 -8 5 -8 6 0 13 0 16 0 5 -1 44 -33 76
-63 10 -9 24 -17 30 -17 6 0 20 -10 31 -22 11 -13 16 -16 12 -8 -4 9 1 7 14
-5 27 -26 37 -34 92 -70 25 -16 47 -32 50 -35 3 -3 22 -14 43 -25 20 -11 37
-23 37 -27 0 -5 7 -8 15 -8 9 0 18 -7 21 -15 4 -8 10 -13 14 -10 4 3 13 -2 20
-10 7 -8 19 -15 27 -15 8 0 11 -4 8 -10 -3 -6 1 -7 9 -4 9 3 16 1 16 -5 0 -6
5 -11 10 -11 6 0 21 -9 33 -20 12 -11 27 -18 34 -16 7 3 13 -2 13 -10 0 -8 5
-12 10 -9 6 3 10 1 10 -4 0 -6 7 -11 15 -11 7 0 19 -8 24 -17 6 -10 11 -14 11
-9 0 5 7 3 15 -4 8 -7 15 -9 15 -4 0 5 4 4 8 -1 10 -14 123 -81 125 -75 2 3
13 -5 27 -17 13 -13 30 -23 37 -23 7 0 13 -4 13 -8 0 -4 16 -14 35 -21 19 -7
35 -17 35 -22 0 -6 4 -8 9 -5 5 3 14 -1 21 -9 7 -8 16 -12 21 -9 5 3 9 0 9 -6
0 -6 4 -8 10 -5 5 3 10 2 10 -2 0 -5 16 -15 35 -22 19 -7 33 -16 31 -20 -3 -4
5 -8 17 -8 12 -1 23 -7 25 -13 2 -5 9 -10 16 -10 18 0 66 -24 66 -32 0 -5 9
-8 20 -8 11 0 20 -4 20 -10 0 -5 3 -9 8 -8 9 2 105 -43 113 -54 3 -4 17 -9 31
-10 15 -1 24 -6 22 -10 -5 -7 10 -12 29 -9 4 0 7 -4 7 -9 0 -5 3 -9 8 -8 4 1
43 -15 87 -36 44 -21 86 -39 93 -39 6 0 12 -5 12 -10 0 -5 7 -7 15 -3 8 3 15
2 15 -2 0 -9 70 -37 83 -34 4 1 7 -3 7 -8 0 -6 9 -10 19 -10 11 0 23 -4 26
-10 3 -5 15 -10 26 -10 10 0 19 -5 19 -11 0 -5 4 -8 9 -5 4 3 30 -5 57 -18 27
-13 79 -34 117 -47 37 -13 67 -28 67 -32 0 -4 4 -6 9 -3 5 4 29 -3 54 -13 25
-11 48 -17 51 -14 3 4 6 1 6 -6 0 -7 5 -9 10 -6 6 3 10 1 10 -5 0 -6 5 -8 10
-5 6 3 16 3 23 -2 6 -4 18 -8 26 -10 8 -1 17 -5 20 -10 3 -4 15 -9 26 -10 22
-1 87 -25 95 -33 3 -3 12 -5 20 -5 8 1 21 -4 29 -9 8 -6 15 -10 15 -8 1 2 8 1
16 -2 76 -24 97 -30 108 -28 6 2 12 -1 12 -6 0 -7 54 -24 115 -36 11 -2 32 -9
46 -14 15 -6 30 -8 33 -5 3 4 6 1 6 -6 0 -7 6 -11 13 -8 6 2 27 -2 45 -9 17
-7 32 -11 32 -9 0 3 12 0 28 -6 28 -11 68 -21 90 -22 6 0 12 -3 12 -6 0 -4 11
-8 25 -9 36 -3 49 -6 55 -14 3 -4 25 -9 48 -10 23 -2 42 -7 42 -12 0 -4 6 -6
14 -3 8 3 17 3 20 -1 6 -6 12 -7 66 -17 41 -8 65 -13 65 -16 0 -1 9 -3 20 -5
32 -4 77 -14 110 -23 17 -4 38 -7 48 -5 9 1 17 -2 17 -7 0 -5 20 -9 45 -9 25
0 45 -4 45 -8 0 -5 16 -8 35 -7 19 2 38 -1 41 -6 3 -5 10 -7 15 -3 5 3 16 0
24 -6 12 -10 15 -10 15 1 0 9 3 10 8 4 4 -6 22 -12 41 -14 19 -1 44 -6 55 -10
12 -4 31 -6 44 -5 12 0 22 -2 22 -6 0 -4 10 -6 23 -5 12 1 28 -2 35 -8 8 -6
12 -5 12 4 0 9 3 10 8 4 4 -5 16 -11 27 -12 11 -1 47 -5 80 -9 33 -4 72 -7 88
-8 15 0 27 -3 27 -6 0 -3 15 -5 33 -5 17 1 38 -3 45 -8 8 -6 12 -5 12 4 0 12
2 12 9 1 4 -8 11 -13 15 -13 37 5 66 -1 60 -11 -6 -10 -4 -10 7 0 16 14 43 16
34 2 -4 -7 3 -7 19 0 14 5 26 6 26 2 0 -4 17 -7 38 -7 20 1 52 -2 70 -6 21 -5
32 -3 32 5 0 7 3 7 8 1 4 -5 27 -11 52 -11 25 -1 54 -5 64 -9 15 -6 17 -5 11
5 -6 9 -4 11 5 5 16 -10 55 -13 208 -16 71 -2 112 -7 112 -13 0 -6 4 -5 9 3 8
12 14 13 36 3 14 -7 24 -8 21 -4 -3 5 13 9 34 8 22 0 40 -5 40 -11 0 -5 4 -4
9 4 6 9 11 10 15 2 5 -8 13 -8 26 -1 13 7 21 7 25 0 5 -8 11 -8 20 0 10 8 15
8 20 0 5 -8 11 -8 21 1 11 9 14 9 14 -1 0 -10 3 -10 14 -1 10 8 16 9 21 1 4
-7 13 -7 27 1 16 9 23 8 29 -2 7 -12 9 -12 9 0 0 10 3 11 13 2 8 -6 17 -8 21
-4 10 11 50 11 63 1 6 -5 14 -5 16 -1 3 5 61 10 129 12 177 4 232 6 243 12 6
2 35 4 67 4 31 0 54 4 51 8 -3 5 4 4 14 -2 11 -6 24 -7 27 -3 4 4 31 7 59 8
29 1 79 5 112 9 33 4 67 8 75 8 8 0 21 5 29 11 12 9 13 8 6 -3 -6 -10 -4 -12
6 -6 7 5 29 10 49 12 19 2 46 5 60 7 14 1 31 6 38 10 7 4 12 3 12 -2 0 -5 7
-9 15 -9 8 0 12 4 9 9 -4 5 0 9 7 7 8 -1 31 -1 52 0 28 1 36 4 31 14 -6 9 -5
9 8 0 8 -7 18 -10 21 -7 6 7 64 15 115 18 17 0 32 4 32 7 0 4 11 7 25 8 14 1
36 2 50 3 14 1 25 5 25 8 0 3 10 6 23 6 24 1 92 12 117 19 8 2 37 7 64 10 28
3 52 8 55 13 3 4 15 7 26 7 11 0 47 7 81 15 33 9 70 16 82 15 12 -1 18 3 15 8
-4 6 3 8 15 5 13 -4 22 -1 22 5 0 8 4 7 9 -2 5 -8 10 -9 12 -3 2 6 18 13 34
16 17 2 30 5 30 6 0 2 14 4 30 5 17 2 30 4 30 5 0 1 7 3 15 5 8 2 49 14 90 25
41 12 82 23 90 25 8 2 17 4 20 5 3 1 10 3 15 5 6 1 12 3 15 4 12 6 47 13 68
15 12 0 22 8 23 16 0 11 2 11 6 2 4 -10 8 -10 19 -1 8 6 14 8 14 5 0 -4 8 -2
18 3 9 5 31 11 47 14 17 3 44 11 60 18 34 14 43 17 65 21 8 2 21 7 28 11 6 5
16 6 21 3 5 -3 14 1 21 9 7 8 16 12 22 9 5 -3 15 -1 22 5 7 6 20 9 28 6 8 -3
21 1 28 9 7 9 16 14 20 11 5 -3 11 -1 15 4 3 6 12 8 20 4 8 -3 15 1 15 8 0 7
3 9 7 6 3 -4 12 -2 20 4 7 6 13 8 13 5 0 -4 10 -1 23 6 12 7 28 11 35 10 6 -2
12 1 12 6 0 5 6 9 13 10 18 1 39 7 67 19 75 33 133 52 140 48 4 -3 13 2 20 10
7 8 21 15 31 15 11 0 19 4 19 10 0 5 3 9 8 8 8 -2 46 9 87 27 119 52 195 83
195 79 0 -3 14 5 32 17 17 13 28 16 23 8 -5 -9 -1 -8 12 4 11 9 23 14 26 10 4
-3 7 -1 7 6 0 7 5 9 10 6 6 -3 10 -1 10 5 0 7 6 10 12 8 7 -3 19 1 26 9 8 7
18 11 23 8 5 -4 9 -1 9 4 0 6 4 11 10 11 15 0 144 63 152 75 4 5 8 6 8 0 0 -5
5 -4 11 2 6 6 18 9 27 6 10 -4 13 -2 8 5 -5 8 3 14 23 18 17 4 28 10 25 15 -3
5 1 9 9 9 18 0 100 40 109 54 4 6 8 8 8 4 0 -3 21 5 48 19 26 15 65 35 87 46
22 11 42 23 45 26 3 4 20 13 38 20 17 8 32 17 32 22 0 5 3 8 8 7 13 -2 46 14
70 35 12 11 22 17 22 13 0 -4 15 4 33 18 19 14 37 23 40 19 4 -3 7 -1 7 6 0 7
4 9 10 6 5 -3 15 3 22 15 7 11 19 20 26 20 7 0 33 14 58 30 24 17 44 28 44 24
0 -4 7 1 15 12 8 10 15 15 15 11 0 -4 10 1 22 12 11 11 25 18 30 15 4 -3 11 1
14 9 3 9 16 18 30 21 13 4 24 14 24 23 0 9 3 13 7 10 3 -4 12 -2 20 4 7 6 13
8 13 5 0 -4 6 -1 14 6 8 7 12 16 9 20 -2 4 3 5 11 2 8 -3 23 4 33 15 9 12 21
21 26 21 10 0 69 41 79 55 4 5 11 10 16 10 5 0 16 8 26 18 10 9 24 17 32 17 8
0 13 4 10 9 -5 8 12 20 24 17 3 0 19 11 35 27 17 15 38 30 48 33 9 3 14 10 11
16 -5 7 -2 8 6 3 7 -5 21 2 35 19 12 14 24 23 27 21 3 -3 17 6 32 20 15 14 29
25 32 25 2 0 13 8 24 17 11 10 29 25 39 35 11 9 22 14 25 11 3 -4 6 -1 6 6 0
7 5 9 10 6 6 -4 9 -2 8 3 -2 6 1 10 6 10 5 0 13 7 18 16 5 9 16 16 24 16 8 0
13 4 9 9 -3 5 4 12 15 16 11 3 20 11 20 16 0 5 9 9 21 9 15 0 19 5 15 15 -3 9
0 15 8 15 7 0 25 11 40 25 15 14 30 25 33 25 6 0 23 15 69 59 13 13 24 20 24
15 1 -5 7 2 15 16 8 14 14 21 15 16 0 -5 16 8 35 28 19 21 35 34 35 29 0 -4 7
3 16 15 8 12 19 20 24 17 5 -3 12 4 15 16 4 11 9 18 12 15 5 -5 49 33 159 141
41 40 74 69 74 65 1 -4 7 4 15 18 8 14 14 21 15 15 0 -12 50 44 50 56 0 5 7 6
15 3 9 -4 15 0 15 8 0 8 11 21 25 28 13 7 23 16 22 19 -4 7 40 51 45 46 2 -2
9 3 16 11 7 8 11 14 8 14 -3 0 5 10 17 23 12 13 25 22 30 20 4 -2 7 1 7 6 0 6
27 38 60 72 33 33 60 65 60 70 0 6 4 8 9 4 5 -3 12 4 16 15 4 11 11 18 16 15
5 -4 9 -2 9 3 0 5 27 36 60 70 33 34 60 65 60 68 0 4 11 17 25 30 14 13 25 28
25 34 0 6 5 8 10 5 6 -3 10 -2 10 3 0 5 11 22 25 38 14 16 25 32 25 37 0 4 7
7 16 7 8 0 13 4 9 9 -3 6 4 15 16 21 11 7 19 14 16 16 -3 3 9 20 27 38 65 70
92 102 99 119 3 9 11 17 17 17 6 0 9 4 5 9 -3 6 4 15 16 21 11 7 18 14 15 17
-2 3 7 16 21 29 14 13 22 24 18 24 -4 0 4 11 18 24 14 13 23 26 21 29 -3 3 4
11 16 17 12 6 20 14 17 16 -3 3 5 15 17 28 31 33 57 66 51 66 -3 0 4 9 15 20
11 11 20 25 20 31 0 5 4 7 10 4 6 -3 7 1 4 9 -3 9 -1 16 5 16 6 0 11 5 11 10
0 6 8 19 18 29 31 35 43 51 37 51 -3 0 4 10 15 22 54 59 55 61 40 54 -9 -5 -8
-2 3 7 9 8 17 19 17 26 0 6 5 11 11 11 6 0 8 7 5 16 -3 8 -2 12 4 9 5 -3 16 8
25 25 8 16 19 30 23 30 4 0 15 14 24 31 11 18 13 27 5 24 -6 -4 -4 0 6 8 9 8
17 19 17 26 0 6 5 11 11 11 5 0 15 13 20 30 6 17 15 30 21 30 5 0 7 4 4 9 -3
5 1 11 9 15 8 3 15 12 15 21 0 8 4 15 8 15 5 0 16 18 26 40 10 22 22 40 27 40
5 0 9 6 9 14 0 7 7 19 15 26 8 7 15 21 15 32 0 10 5 16 10 13 6 -3 10 -1 10 6
0 7 8 21 18 32 10 13 12 17 3 12 -8 -5 -3 7 12 27 15 19 27 40 27 46 0 7 5 12
10 12 6 0 10 7 10 15 0 8 5 15 12 15 6 0 8 3 5 7 -4 3 0 15 10 25 9 10 12 18
7 18 -5 0 -4 4 1 8 12 8 38 52 63 102 9 19 19 37 23 40 3 3 13 22 22 43 10 20
22 37 28 37 6 0 8 4 5 9 -7 11 22 71 34 71 5 0 7 9 5 20 -2 11 0 18 4 15 7 -4
19 20 19 41 1 3 9 12 19 21 10 8 11 11 3 7 -10 -5 -9 0 4 14 11 12 16 22 12
22 -4 0 2 13 13 29 11 15 18 31 14 35 -3 3 -1 6 5 6 7 0 11 3 11 7 -3 21 2 33
12 28 6 -4 9 -1 8 6 -1 8 13 46 31 84 18 39 33 76 33 83 0 6 4 12 8 12 7 0 33
60 30 73 0 4 4 7 9 7 5 0 9 3 8 7 -1 5 3 18 10 30 7 13 9 23 5 23 -4 0 -2 4 5
9 7 4 14 14 15 22 2 8 6 20 10 26 5 7 5 17 2 23 -3 6 -2 10 3 10 5 0 20 27 32
60 12 33 27 60 32 60 5 0 6 5 3 10 -3 6 -3 16 2 23 4 6 8 18 10 26 1 8 7 17
13 21 7 4 11 9 10 11 -5 8 34 119 42 119 4 0 5 7 2 15 -4 8 -1 15 5 15 6 0 11
11 11 24 0 14 5 28 10 31 6 4 8 10 5 15 -3 5 0 12 6 15 5 4 8 14 5 22 -3 8 -1
11 4 8 6 -3 10 5 10 19 0 14 4 26 9 26 6 0 8 9 6 20 -2 11 0 20 5 20 4 0 11 7
14 16 3 8 2 12 -4 9 -5 -3 -3 7 5 22 8 15 15 36 15 46 0 9 4 17 8 17 5 0 9 6
10 13 2 30 28 108 34 102 4 -4 5 1 4 12 -2 10 1 23 6 30 5 7 7 17 4 22 -4 5
-2 12 4 16 6 4 8 11 5 16 -4 5 -1 9 5 9 6 0 9 4 5 9 -3 5 -1 12 5 16 6 4 8 10
5 15 -3 5 -1 17 4 27 12 22 23 53 26 73 1 8 6 29 9 45 4 17 8 35 9 40 2 6 6
16 10 23 5 6 5 12 1 12 -3 0 -1 7 6 15 10 12 10 15 -1 15 -9 0 -10 3 -4 8 6 4
16 18 23 31 11 19 11 22 0 15 -10 -6 -10 -4 1 9 8 10 11 20 7 24 -3 3 0 16 7
27 8 12 13 29 11 39 -1 9 1 17 5 17 4 0 8 6 8 13 1 6 4 30 8 52 4 22 8 46 8
53 0 6 3 12 7 12 4 0 7 6 7 13 2 27 11 73 18 89 4 9 4 22 0 28 -3 5 -2 10 4
10 6 0 8 7 5 15 -4 8 -1 15 6 15 6 0 9 4 6 8 -3 4 0 26 5 48 6 21 12 55 15 74
3 19 10 41 17 49 10 12 9 13 -3 6 -13 -8 -13 -7 -1 8 7 9 10 17 5 17 -5 0 -2
5 6 10 9 6 10 10 3 10 -9 0 -9 8 -1 30 5 17 7 37 4 45 -3 8 0 15 5 15 7 0 9
11 7 25 -3 14 -2 25 2 25 4 0 6 14 5 30 -1 17 2 30 6 30 4 0 6 11 4 25 -1 14
1 25 5 25 4 0 8 10 8 23 0 42 14 122 22 132 5 6 5 17 0 25 -5 8 -6 19 -2 25 9
13 12 30 16 90 3 28 5 50 6 50 1 0 3 24 6 54 2 30 10 61 16 69 10 13 10 14 1
8 -8 -4 -13 -2 -13 6 0 8 6 20 13 27 10 11 9 12 -3 6 -12 -7 -13 -6 -3 6 7 9
11 25 8 37 -2 12 -1 22 4 22 4 0 6 27 5 60 0 32 3 57 8 54 12 -8 5 19 -7 28
-6 5 -4 8 5 8 13 0 13 1 0 10 -8 5 -10 10 -5 10 6 0 11 30 13 67 2 39 8 71 15
75 9 6 9 8 0 8 -7 0 -13 7 -13 15 0 8 6 15 13 15 8 0 8 3 -2 9 -12 8 -12 12
-2 25 10 12 10 16 2 16 -7 0 -9 5 -5 12 12 20 13 172 2 186 -8 9 -7 11 7 6 15
-6 16 -4 6 14 -9 17 -9 22 1 22 9 0 9 3 -2 10 -8 5 -10 10 -5 10 6 0 9 32 9
80 -1 54 2 78 9 73 6 -4 7 -1 2 7 -5 8 -9 79 -10 159 0 81 -4 151 -7 156 -4 6
-3 17 2 25 5 8 4 22 -2 33 -7 14 -7 17 1 13 6 -4 11 -3 11 3 0 5 -6 12 -12 14
-10 4 -9 6 1 6 11 1 11 4 1 16 -8 10 -9 15 -1 15 7 0 8 8 2 23 -5 13 -5 30 0
39 5 9 6 19 1 22 -4 2 -7 30 -6 60 1 35 -3 56 -10 56 -6 0 -4 5 4 10 12 8 12
10 1 10 -10 0 -11 3 -2 14 9 10 9 16 1 21 -8 5 -7 11 2 23 8 10 8 13 1 9 -15
-10 -22 13 -12 40 5 12 5 24 1 27 -4 2 -7 27 -6 55 1 31 -3 51 -9 51 -8 0 -7
4 0 11 7 7 8 21 4 33 -4 11 -7 49 -7 83 1 33 -2 59 -6 57 -4 -3 -6 14 -5 36 2
22 0 40 -4 40 -4 0 -7 10 -7 23 -2 48 -11 119 -16 124 -3 4 -1 12 5 20 9 10 8
13 -1 13 -7 0 -10 11 -9 28 2 15 1 32 -3 37 -3 6 -5 22 -4 38 1 15 -1 27 -5
27 -3 0 -6 7 -6 15 0 8 5 15 11 15 7 0 6 3 -1 8 -7 4 -13 22 -15 40 -1 18 -7
32 -13 32 -5 0 -3 5 5 10 8 5 10 10 5 10 -6 0 -12 10 -12 23 -4 50 -8 77 -14
77 -3 0 -6 16 -7 35 -4 71 -6 85 -12 85 -3 0 -7 17 -8 38 -3 63 -9 94 -18 101
-5 3 -9 22 -9 41 0 19 -5 49 -12 66 -7 17 -9 34 -6 37 3 4 0 13 -7 22 -7 9
-10 18 -7 22 3 3 0 20 -8 38 -7 19 -11 36 -8 39 3 3 0 12 -7 21 -10 12 -10 15
0 15 9 0 10 3 1 13 -6 8 -8 17 -4 20 3 4 1 7 -6 7 -7 0 -11 7 -8 15 4 8 2 17
-2 20 -5 3 -7 14 -4 25 3 11 0 20 -6 20 -13 0 -10 22 4 32 6 5 3 8 -7 8 -11 0
-15 6 -11 20 3 12 0 20 -7 20 -7 0 -9 8 -5 20 3 11 2 20 -3 20 -5 0 -9 6 -10
13 -4 45 -15 91 -24 97 -4 3 -8 20 -10 38 -1 18 -6 32 -10 32 -4 0 -5 6 -2 14
3 8 0 17 -5 21 -6 3 -8 11 -5 17 4 6 -1 17 -11 25 -11 7 -13 13 -7 13 10 0 10
5 1 23 -7 12 -12 23 -11 25 1 1 2 3 1 5 0 1 -2 9 -4 17 -7 36 -39 126 -49 139
-9 12 -8 13 3 7 9 -6 8 -1 -3 16 -9 14 -13 28 -9 31 3 4 1 7 -5 7 -6 0 -9 9
-7 20 2 11 -1 20 -7 20 -6 0 -8 9 -5 20 3 11 1 20 -5 20 -5 0 -6 5 -3 10 3 6
2 10 -3 10 -5 0 -13 15 -17 33 -7 30 -9 36 -15 55 -1 4 -2 10 -1 15 0 4 -3 7
-7 7 -5 0 -9 6 -10 13 -2 28 -9 45 -26 72 -10 15 -13 24 -6 20 7 -4 4 4 -5 19
-10 14 -14 26 -10 26 4 0 2 7 -5 15 -7 8 -10 21 -7 29 3 8 -1 20 -9 26 -8 7
-14 21 -14 31 0 11 -4 19 -10 19 -5 0 -10 9 -10 19 0 11 -6 22 -12 24 -10 4
-10 6 0 6 10 1 10 5 -2 17 -9 8 -14 19 -11 24 3 5 1 11 -5 15 -5 3 -10 15 -10
26 0 10 -5 19 -11 19 -7 0 -9 9 -6 21 3 12 0 22 -9 26 -8 3 -11 9 -8 14 3 5 0
9 -7 9 -7 0 -10 3 -6 6 3 4 0 19 -9 35 -8 16 -12 29 -9 29 4 0 -1 7 -9 16 -9
8 -14 19 -11 24 3 5 1 10 -4 12 -5 1 -11 12 -13 23 -1 11 -9 26 -16 33 -7 8
-9 18 -6 23 3 6 -2 19 -12 30 -9 10 -13 19 -8 19 5 0 5 4 -1 8 -15 10 -35 49
-35 67 0 8 -5 15 -12 15 -6 0 -8 3 -5 6 7 7 -22 64 -38 76 -5 4 -7 8 -2 8 4 0
0 15 -10 33 -9 17 -18 35 -19 40 -1 4 -3 10 -4 15 -1 4 -2 10 -1 15 0 4 -5 6
-11 5 -7 -2 -14 8 -16 21 -2 14 -10 34 -18 46 -8 12 -12 25 -9 28 3 4 2 5 -1
3 -3 -3 -27 37 -52 87 -26 51 -50 94 -55 95 -4 2 -5 8 -1 13 3 5 0 9 -6 9 -6
0 -8 5 -5 10 3 6 1 10 -6 10 -7 0 -9 3 -6 7 4 3 0 11 -9 17 -8 6 -16 21 -17
34 0 12 -4 22 -8 22 -4 0 -12 14 -19 30 -7 17 -17 30 -22 30 -5 0 -6 5 -3 10
3 6 1 10 -5 10 -6 0 -8 5 -5 10 3 6 2 10 -4 10 -5 0 -11 10 -13 23 -2 12 -9
21 -16 19 -6 -1 -11 1 -10 5 2 13 -15 47 -31 61 -13 11 -13 12 -1 7 8 -4 4 3
-9 14 -13 12 -18 21 -11 21 7 0 6 6 -4 16 -9 8 -16 22 -16 30 0 8 -4 12 -10 9
-5 -3 -10 0 -10 8 0 8 -7 20 -15 27 -9 7 -14 19 -11 27 3 7 -1 13 -10 13 -8 0
-12 5 -9 10 3 6 1 10 -4 10 -6 0 -11 7 -11 15 0 8 -3 15 -8 15 -4 0 -13 13
-20 28 -6 16 -20 37 -30 48 -17 17 -30 43 -32 62 -1 4 -8 11 -16 15 -8 4 -14
13 -14 18 0 6 -7 17 -15 26 -8 8 -13 19 -10 24 4 5 -1 9 -9 9 -14 0 -20 12
-13 25 1 2 -8 12 -21 20 -12 9 -20 20 -18 24 3 4 -4 13 -14 21 -10 8 -17 17
-14 22 3 4 -2 11 -10 14 -9 3 -16 11 -16 16 0 6 -9 19 -21 29 -11 9 -20 20
-19 24 1 4 -7 17 -18 30 -11 13 -18 26 -15 29 3 3 -2 8 -11 12 -9 3 -16 12
-16 20 0 8 -5 14 -11 14 -5 0 -8 4 -5 8 3 5 -4 14 -14 22 -10 8 -17 17 -14 22
3 4 0 8 -5 8 -6 0 -11 4 -11 10 0 5 -10 20 -22 34 -13 13 -32 36 -43 51 -11
15 -25 32 -32 40 -7 7 -9 15 -6 19 4 3 -1 6 -11 6 -9 0 -14 5 -11 10 3 6 2 10
-4 10 -5 0 -13 9 -16 20 -3 11 -13 20 -21 20 -8 0 -13 3 -13 8 3 19 -2 33 -11
27 -5 -3 -10 1 -10 9 0 9 -4 16 -10 16 -5 0 -10 5 -10 11 0 16 -26 39 -35 31
-5 -4 -5 -1 -1 6 4 7 1 15 -8 18 -9 3 -14 10 -11 14 3 5 -5 16 -17 24 -12 9
-18 16 -13 16 5 0 -1 7 -13 16 -12 8 -22 22 -22 30 0 8 -5 13 -12 12 -7 -2
-12 4 -13 12 -1 8 -6 14 -13 12 -7 -1 -12 4 -12 12 0 7 -11 22 -25 32 -14 10
-25 24 -25 31 0 7 -9 17 -20 23 -11 6 -20 17 -20 25 0 8 -8 15 -17 15 -9 0
-14 3 -11 6 6 6 -34 54 -119 140 -29 30 -53 57 -53 62 0 5 -11 15 -25 22 -13
7 -27 22 -31 32 -3 10 -10 16 -15 13 -5 -4 -9 -1 -9 5 0 6 -40 51 -89 100 -49
49 -86 91 -83 94 3 4 0 6 -7 6 -7 0 -34 23 -61 50 -27 28 -53 50 -59 50 -5 0
-13 9 -16 20 -3 11 -9 20 -13 20 -12 0 -72 57 -72 69 0 6 -4 11 -9 11 -14 0
-60 48 -53 56 4 4 2 4 -4 1 -6 -4 -30 10 -52 31 -23 20 -61 56 -86 79 -25 23
-46 39 -46 36 0 -3 -8 4 -19 15 -10 12 -23 22 -30 22 -6 0 -11 6 -11 14 0 15
-47 49 -67 49 -7 0 -10 4 -8 8 3 4 -11 20 -31 35 -20 16 -43 35 -50 42 -7 6
-15 12 -18 12 -7 0 -54 39 -75 63 -8 9 -21 17 -28 17 -7 0 -13 5 -13 10 0 6
-4 10 -10 10 -5 0 -18 8 -28 18 -33 31 -72 62 -78 62 -4 0 -19 13 -35 29 -15
16 -36 32 -46 35 -10 3 -30 17 -45 31 -16 14 -28 23 -28 20 0 -4 -7 0 -15 7
-33 30 -45 38 -45 32 0 -4 -8 3 -19 14 -10 12 -21 22 -25 22 -4 0 -22 11 -40
25 -18 14 -36 22 -41 17 -5 -4 -5 -1 -1 6 5 8 -2 16 -18 22 -14 5 -26 15 -26
21 0 7 -3 10 -6 6 -4 -3 -12 -1 -19 6 -7 7 -21 18 -31 24 -11 7 -50 33 -87 58
-38 25 -73 45 -78 45 -5 0 -9 5 -9 10 0 6 -7 10 -15 10 -8 0 -15 5 -15 10 0 6
-7 10 -15 10 -8 0 -15 5 -15 10 0 6 -6 10 -14 10 -7 0 -19 7 -26 15 -7 8 -16
12 -21 9 -5 -3 -9 0 -9 5 0 6 -9 11 -20 11 -11 0 -20 6 -20 14 0 8 -13 17 -30
21 -16 4 -30 10 -30 14 0 4 -21 19 -47 32 -27 13 -49 27 -51 32 -2 4 -9 7 -16
7 -7 0 -22 9 -34 20 -12 12 -22 18 -22 14 0 -3 -7 -1 -15 6 -8 7 -15 9 -15 4
0 -5 -5 -1 -11 9 -5 9 -19 17 -29 17 -11 0 -20 4 -20 8 0 5 -22 19 -50 32 -27
13 -50 27 -50 32 0 5 -4 7 -9 4 -5 -3 -19 2 -32 12 -27 21 -90 48 -101 44 -5
-1 -8 2 -8 7 0 4 -25 19 -55 32 -30 13 -55 27 -55 31 0 5 -7 8 -15 8 -14 0
-53 18 -65 30 -6 6 -30 12 -47 13 -7 0 -10 4 -8 8 3 4 -12 14 -33 22 -84 34
-122 52 -122 59 0 5 -11 8 -25 8 -14 0 -25 4 -25 8 0 4 -17 14 -37 21 -21 8
-56 22 -77 32 -22 11 -46 19 -53 19 -7 0 -13 5 -13 11 0 6 -7 9 -15 5 -8 -3
-15 -1 -15 5 0 6 -4 7 -10 4 -5 -3 -10 -1 -10 4 0 6 -9 11 -20 11 -11 0 -20 4
-20 10 0 5 -6 7 -14 4 -8 -3 -17 0 -21 5 -3 6 -11 9 -16 6 -5 -4 -9 -2 -9 3 0
8 -31 20 -57 23 -5 0 -19 7 -33 14 -23 12 -53 25 -72 30 -5 2 -11 4 -15 5 -5
1 -11 2 -15 1 -5 0 -8 4 -8 9 0 6 -11 10 -25 10 -14 0 -25 4 -25 8 0 5 -7 9
-15 10 -8 1 -22 3 -30 4 -8 1 -15 6 -15 11 0 6 -3 8 -6 4 -4 -3 -19 0 -35 8
-15 8 -36 16 -46 18 -10 2 -28 8 -40 15 -12 7 -26 11 -30 10 -4 -1 -17 3 -28
9 -11 6 -28 9 -38 8 -9 -2 -15 1 -11 6 3 5 -3 10 -13 11 -26 2 -36 4 -55 12
-9 4 -22 9 -30 10 -7 1 -24 8 -38 16 -14 7 -26 12 -28 11 -5 -5 -67 11 -78 20
-7 6 -26 11 -43 12 -17 1 -31 6 -31 11 0 4 -7 6 -15 2 -8 -3 -15 -1 -15 5 0 6
-5 7 -10 4 -6 -4 -17 -1 -25 5 -8 7 -15 10 -15 7 0 -3 -24 2 -54 13 -30 10
-57 16 -59 13 -3 -3 -12 -1 -19 3 -7 5 -24 10 -38 12 -13 2 -29 7 -35 12 -5 4
-23 10 -40 11 -16 2 -32 7 -35 10 -3 4 -21 9 -40 12 -19 3 -48 9 -65 14 -16 5
-39 9 -50 9 -11 -1 -22 2 -25 6 -3 4 -21 8 -39 10 -18 1 -34 5 -37 9 -2 3 -15
5 -29 4 -14 -2 -25 1 -25 7 0 6 -6 8 -14 5 -7 -3 -17 -2 -22 3 -5 4 -27 11
-49 14 -22 3 -51 8 -65 12 -14 3 -38 7 -55 9 -16 2 -30 4 -30 5 0 3 -39 11
-70 14 -16 2 -30 5 -30 6 0 1 -16 3 -35 6 -40 5 -75 12 -75 14 0 4 -43 10 -77
12 -21 1 -38 5 -38 8 0 4 -15 7 -32 8 -18 1 -46 3 -63 6 -73 11 -124 17 -175
22 -110 11 -181 20 -234 30 -22 5 -27 3 -20 -7 6 -11 5 -12 -7 -2 -9 7 -44 14
-80 16 -35 1 -69 6 -76 10 -6 4 -14 3 -17 -2 -4 -5 -18 -6 -34 -2 -15 4 -37 7
-50 6 -13 -1 -25 2 -28 7 -3 4 -10 5 -17 1 -16 -10 -58 -10 -64 0 -2 4 -12 2
-21 -5 -10 -9 -13 -9 -9 -1 7 11 -23 14 -138 13 -44 0 -51 0 -70 3 -11 2 -23
-1 -27 -7 -5 -7 -8 -7 -8 3 0 11 -3 11 -15 1 -8 -7 -15 -8 -15 -4 0 5 -55 9
-122 9 -71 0 -126 4 -130 10 -5 7 -8 6 -8 0z"/>
</g>
</svg>
